<svg width="136" height="28" viewBox="0 0 136 28" fill="none" xmlns="http://www.w3.org/2000/svg">
<circle cx="9.88804" cy="3.54478" r="3.54478" fill="#319795"/>
<path d="M7.68958 9.32837H12.1672V22.7612C12.1672 23.9977 11.1648 25 9.92838 25V25C8.69192 25 7.68958 23.9977 7.68958 22.7612V9.32837Z" fill="#319795"/>
<rect y="7.98224" width="4.47761" height="12.9739" rx="2.23881" transform="rotate(-60 0 7.98224)" fill="#319795"/>
<rect x="17.9911" y="4.10449" width="4.47761" height="13.0188" rx="2.23881" transform="rotate(60 17.9911 4.10449)" fill="#319795"/>
<path d="M29.1311 19V8.81818H35.445V10.1406H30.6673V13.2429H34.9926V14.5604H30.6673V19H29.1311ZM37.9149 19V11.3636H39.4014V19H37.9149ZM38.6656 10.1854C38.4071 10.1854 38.185 10.0992 37.9994 9.92685C37.8171 9.75118 37.726 9.54238 37.726 9.30043C37.726 9.05516 37.8171 8.84635 37.9994 8.67401C38.185 8.49834 38.4071 8.41051 38.6656 8.41051C38.9241 8.41051 39.1446 8.49834 39.3268 8.67401C39.5125 8.84635 39.6053 9.05516 39.6053 9.30043C39.6053 9.54238 39.5125 9.75118 39.3268 9.92685C39.1446 10.0992 38.9241 10.1854 38.6656 10.1854ZM47.8235 13.228L46.4762 13.4666C46.4199 13.2943 46.3304 13.1302 46.2078 12.9744C46.0885 12.8187 45.9261 12.6911 45.7206 12.5916C45.5151 12.4922 45.2582 12.4425 44.95 12.4425C44.529 12.4425 44.1777 12.5369 43.896 12.7259C43.6143 12.9115 43.4734 13.1518 43.4734 13.4467C43.4734 13.7019 43.5679 13.9074 43.7568 14.0632C43.9457 14.219 44.2506 14.3466 44.6716 14.446L45.8846 14.7244C46.5873 14.8868 47.111 15.1371 47.4556 15.4751C47.8003 15.8132 47.9727 16.2524 47.9727 16.7926C47.9727 17.25 47.8401 17.6577 47.575 18.0156C47.3131 18.3703 46.9469 18.6487 46.4762 18.8509C46.0089 19.053 45.467 19.1541 44.8505 19.1541C43.9954 19.1541 43.2977 18.9718 42.7575 18.6072C42.2172 18.2393 41.8858 17.7173 41.7632 17.0412L43.2 16.8224C43.2895 17.197 43.4734 17.4804 43.7518 17.6726C44.0302 17.8615 44.3931 17.956 44.8406 17.956C45.3278 17.956 45.7172 17.8549 46.0089 17.6527C46.3006 17.4472 46.4464 17.197 46.4464 16.902C46.4464 16.6634 46.3569 16.4628 46.1779 16.3004C46.0023 16.138 45.7322 16.0154 45.3676 15.9325L44.075 15.6491C43.3624 15.4867 42.8354 15.2282 42.494 14.8736C42.1559 14.5189 41.9869 14.0698 41.9869 13.5263C41.9869 13.0755 42.1128 12.6811 42.3647 12.343C42.6166 12.005 42.9646 11.7415 43.4088 11.5526C43.8529 11.3603 44.3617 11.2642 44.9351 11.2642C45.7603 11.2642 46.41 11.4432 46.8839 11.8011C47.3579 12.1558 47.6711 12.6314 47.8235 13.228ZM50.3071 19V11.3636H51.7936V19H50.3071ZM51.0578 10.1854C50.7993 10.1854 50.5772 10.0992 50.3916 9.92685C50.2093 9.75118 50.1182 9.54238 50.1182 9.30043C50.1182 9.05516 50.2093 8.84635 50.3916 8.67401C50.5772 8.49834 50.7993 8.41051 51.0578 8.41051C51.3163 8.41051 51.5367 8.49834 51.719 8.67401C51.9046 8.84635 51.9974 9.05516 51.9974 9.30043C51.9974 9.54238 51.9046 9.75118 51.719 9.92685C51.5367 10.0992 51.3163 10.1854 51.0578 10.1854ZM57.71 19.1541C56.9941 19.1541 56.3694 18.9901 55.8358 18.6619C55.3021 18.3338 54.8878 17.8748 54.5929 17.2848C54.2979 16.6948 54.1504 16.0054 54.1504 15.2166C54.1504 14.4245 54.2979 13.7318 54.5929 13.1385C54.8878 12.5452 55.3021 12.0845 55.8358 11.7564C56.3694 11.4283 56.9941 11.2642 57.71 11.2642C58.426 11.2642 59.0507 11.4283 59.5843 11.7564C60.118 12.0845 60.5323 12.5452 60.8272 13.1385C61.1222 13.7318 61.2697 14.4245 61.2697 15.2166C61.2697 16.0054 61.1222 16.6948 60.8272 17.2848C60.5323 17.8748 60.118 18.3338 59.5843 18.6619C59.0507 18.9901 58.426 19.1541 57.71 19.1541ZM57.715 17.9062C58.179 17.9062 58.5635 17.7836 58.8684 17.5384C59.1734 17.2931 59.3987 16.9666 59.5446 16.5589C59.6937 16.1513 59.7683 15.7022 59.7683 15.2116C59.7683 14.7244 59.6937 14.277 59.5446 13.8693C59.3987 13.4583 59.1734 13.1286 58.8684 12.88C58.5635 12.6314 58.179 12.5071 57.715 12.5071C57.2477 12.5071 56.8599 12.6314 56.5517 12.88C56.2467 13.1286 56.0197 13.4583 55.8706 13.8693C55.7247 14.277 55.6518 14.7244 55.6518 15.2116C55.6518 15.7022 55.7247 16.1513 55.8706 16.5589C56.0197 16.9666 56.2467 17.2931 56.5517 17.5384C56.8599 17.7836 57.2477 17.9062 57.715 17.9062ZM69.3016 11.4929C69.2485 11.0223 69.0298 10.6577 68.6453 10.3991C68.2608 10.1373 67.7769 10.0064 67.1936 10.0064C66.776 10.0064 66.4147 10.0727 66.1098 10.2053C65.8049 10.3345 65.5679 10.5135 65.3989 10.7422C65.2331 10.9676 65.1503 11.2244 65.1503 11.5128C65.1503 11.7547 65.2066 11.9635 65.3193 12.1392C65.4353 12.3149 65.5861 12.4624 65.7717 12.5817C65.9607 12.6977 66.1628 12.7955 66.3783 12.875C66.5937 12.9512 66.8009 13.0142 66.9997 13.0639L67.994 13.3224C68.3188 13.402 68.6519 13.5097 68.9933 13.6456C69.3347 13.7815 69.6512 13.9605 69.9429 14.1825C70.2346 14.4046 70.4699 14.6797 70.6489 15.0078C70.8312 15.3359 70.9223 15.7287 70.9223 16.1861C70.9223 16.7628 70.7732 17.2749 70.4749 17.7223C70.1799 18.1697 69.7507 18.5227 69.1872 18.7812C68.6271 19.0398 67.9493 19.169 67.1538 19.169C66.3915 19.169 65.732 19.0481 65.1751 18.8061C64.6183 18.5642 64.1825 18.2211 63.8676 17.777C63.5527 17.3295 63.3787 16.7992 63.3456 16.1861H64.8868C64.9166 16.554 65.0359 16.8606 65.2447 17.1058C65.4569 17.3478 65.727 17.5284 66.0551 17.6477C66.3866 17.7637 66.7495 17.8217 67.1439 17.8217C67.5781 17.8217 67.9642 17.7538 68.3023 17.6179C68.6437 17.4787 68.9121 17.2865 69.1077 17.0412C69.3032 16.7926 69.401 16.5026 69.401 16.1712C69.401 15.8696 69.3148 15.6226 69.1425 15.4304C68.9734 15.2382 68.7431 15.0791 68.4514 14.9531C68.1631 14.8272 67.8366 14.7161 67.472 14.62L66.2689 14.2919C65.4536 14.0698 64.8072 13.7434 64.33 13.3125C63.856 12.8816 63.619 12.3116 63.619 11.6023C63.619 11.0156 63.7781 10.5036 64.0963 10.0661C64.4145 9.62855 64.8454 9.28883 65.3889 9.04688C65.9325 8.80161 66.5456 8.67898 67.2284 8.67898C67.9178 8.67898 68.526 8.79995 69.053 9.0419C69.5833 9.28385 70.0009 9.61695 70.3058 10.0412C70.6107 10.4621 70.7698 10.946 70.7831 11.4929H69.3016ZM76.5554 19.1541C75.8163 19.1541 75.1799 18.9867 74.6463 18.652C74.116 18.3139 73.7083 17.8482 73.4233 17.255C73.1382 16.6617 72.9957 15.9822 72.9957 15.2166C72.9957 14.4411 73.1415 13.7566 73.4332 13.1634C73.7249 12.5668 74.1359 12.1011 74.6662 11.7663C75.1965 11.4316 75.8212 11.2642 76.5404 11.2642C77.1205 11.2642 77.6375 11.3719 78.0916 11.5874C78.5457 11.7995 78.9119 12.0978 79.1903 12.4822C79.472 12.8667 79.6394 13.3158 79.6924 13.8295H78.2457C78.1662 13.4716 77.9839 13.1634 77.6988 12.9048C77.4171 12.6463 77.0393 12.517 76.5653 12.517C76.151 12.517 75.7881 12.6264 75.4765 12.8452C75.1683 13.0606 74.928 13.3688 74.7556 13.7699C74.5833 14.1676 74.4971 14.6383 74.4971 15.1818C74.4971 15.7386 74.5816 16.2192 74.7507 16.6236C74.9197 17.0279 75.1583 17.3411 75.4666 17.5632C75.7781 17.7853 76.1444 17.8963 76.5653 17.8963C76.847 17.8963 77.1022 17.8449 77.3309 17.7422C77.5629 17.6361 77.7568 17.4853 77.9126 17.2898C78.0717 17.0942 78.1827 16.8589 78.2457 16.5838H79.6924C79.6394 17.0777 79.4787 17.5185 79.2102 17.9062C78.9417 18.294 78.5821 18.599 78.1314 18.821C77.6839 19.0431 77.1586 19.1541 76.5554 19.1541ZM83.4686 14.4659V19H81.9821V8.81818H83.4487V12.6065H83.5432C83.7222 12.1955 83.9956 11.8691 84.3635 11.6271C84.7314 11.3852 85.212 11.2642 85.8053 11.2642C86.3289 11.2642 86.7863 11.3719 87.1774 11.5874C87.5718 11.8028 87.8768 12.1243 88.0922 12.5518C88.3109 12.9761 88.4203 13.5064 88.4203 14.1428V19H86.9338V14.3217C86.9338 13.7616 86.7896 13.3274 86.5013 13.0192C86.2129 12.7076 85.8119 12.5518 85.2982 12.5518C84.9468 12.5518 84.632 12.6264 84.3536 12.7756C84.0785 12.9247 83.8614 13.1435 83.7023 13.4318C83.5465 13.7169 83.4686 14.0616 83.4686 14.4659ZM94.3952 19.1541C93.6428 19.1541 92.9948 18.9934 92.4513 18.6719C91.911 18.3471 91.4934 17.8913 91.1984 17.3047C90.9068 16.7147 90.7609 16.0237 90.7609 15.2315C90.7609 14.4493 90.9068 13.7599 91.1984 13.1634C91.4934 12.5668 91.9044 12.1011 92.4314 11.7663C92.9617 11.4316 93.5815 11.2642 94.2908 11.2642C94.7216 11.2642 95.1393 11.3355 95.5436 11.478C95.948 11.6205 96.3109 11.8442 96.6324 12.1491C96.9539 12.4541 97.2074 12.8501 97.393 13.3374C97.5786 13.8213 97.6714 14.4096 97.6714 15.1023V15.6293H91.6011V14.5156H96.2148C96.2148 14.1245 96.1352 13.7782 95.9761 13.4766C95.817 13.1716 95.5933 12.9313 95.305 12.7557C95.0199 12.58 94.6852 12.4922 94.3007 12.4922C93.8831 12.4922 93.5185 12.5949 93.207 12.8004C92.8987 13.0026 92.6601 13.2678 92.4911 13.5959C92.3253 13.9207 92.2425 14.2737 92.2425 14.6548V15.5249C92.2425 16.0353 92.332 16.4695 92.5109 16.8274C92.6932 17.1854 92.9468 17.4588 93.2716 17.6477C93.5964 17.8333 93.9759 17.9261 94.4101 17.9261C94.6918 17.9261 94.9487 17.8864 95.1807 17.8068C95.4127 17.724 95.6132 17.6013 95.7822 17.4389C95.9513 17.2765 96.0805 17.076 96.17 16.8374L97.577 17.0909C97.4643 17.5052 97.2621 17.8681 96.9705 18.1797C96.6821 18.4879 96.3192 18.7282 95.8817 18.9006C95.4475 19.0696 94.952 19.1541 94.3952 19.1541ZM102.879 19.1491C102.263 19.1491 101.713 18.9917 101.229 18.6768C100.748 18.3587 100.37 17.9062 100.095 17.3196C99.8236 16.7296 99.6877 16.022 99.6877 15.1967C99.6877 14.3714 99.8252 13.6655 100.1 13.0788C100.379 12.4922 100.76 12.0431 101.244 11.7315C101.728 11.42 102.276 11.2642 102.889 11.2642C103.363 11.2642 103.744 11.3438 104.033 11.5028C104.325 11.6586 104.55 11.8409 104.709 12.0497C104.871 12.2585 104.997 12.4425 105.087 12.6016H105.176V8.81818H106.663V19H105.211V17.8118H105.087C104.997 17.9742 104.868 18.1598 104.699 18.3686C104.533 18.5774 104.305 18.7597 104.013 18.9155C103.721 19.0713 103.343 19.1491 102.879 19.1491ZM103.208 17.8814C103.635 17.8814 103.996 17.7687 104.291 17.5433C104.59 17.3146 104.815 16.9981 104.968 16.5938C105.123 16.1894 105.201 15.7187 105.201 15.1818C105.201 14.6515 105.125 14.1875 104.972 13.7898C104.82 13.392 104.596 13.0821 104.301 12.8601C104.006 12.638 103.642 12.527 103.208 12.527C102.76 12.527 102.387 12.643 102.089 12.875C101.791 13.107 101.565 13.4235 101.413 13.8246C101.264 14.2256 101.189 14.678 101.189 15.1818C101.189 15.6922 101.265 16.1513 101.418 16.5589C101.57 16.9666 101.796 17.2898 102.094 17.5284C102.396 17.7637 102.767 17.8814 103.208 17.8814ZM114.322 15.8331V11.3636H115.813V19H114.352V17.6776H114.272C114.096 18.0852 113.815 18.425 113.427 18.6967C113.042 18.9652 112.564 19.0994 111.99 19.0994C111.5 19.0994 111.065 18.9917 110.688 18.7763C110.313 18.5575 110.018 18.2344 109.803 17.8068C109.591 17.3793 109.484 16.8506 109.484 16.2209V11.3636H110.971V16.0419C110.971 16.5623 111.115 16.9766 111.403 17.2848C111.692 17.593 112.066 17.7472 112.527 17.7472C112.805 17.7472 113.082 17.6776 113.357 17.5384C113.636 17.3991 113.866 17.1887 114.048 16.907C114.234 16.6252 114.325 16.2673 114.322 15.8331ZM119.997 8.81818V19H118.511V8.81818H119.997ZM125.988 19.1541C125.236 19.1541 124.588 18.9934 124.044 18.6719C123.504 18.3471 123.086 17.8913 122.791 17.3047C122.5 16.7147 122.354 16.0237 122.354 15.2315C122.354 14.4493 122.5 13.7599 122.791 13.1634C123.086 12.5668 123.497 12.1011 124.024 11.7663C124.555 11.4316 125.174 11.2642 125.884 11.2642C126.315 11.2642 126.732 11.3355 127.137 11.478C127.541 11.6205 127.904 11.8442 128.225 12.1491C128.547 12.4541 128.8 12.8501 128.986 13.3374C129.172 13.8213 129.264 14.4096 129.264 15.1023V15.6293H123.194V14.5156H127.808C127.808 14.1245 127.728 13.7782 127.569 13.4766C127.41 13.1716 127.186 12.9313 126.898 12.7557C126.613 12.58 126.278 12.4922 125.894 12.4922C125.476 12.4922 125.111 12.5949 124.8 12.8004C124.492 13.0026 124.253 13.2678 124.084 13.5959C123.918 13.9207 123.835 14.2737 123.835 14.6548V15.5249C123.835 16.0353 123.925 16.4695 124.104 16.8274C124.286 17.1854 124.54 17.4588 124.865 17.6477C125.189 17.8333 125.569 17.9261 126.003 17.9261C126.285 17.9261 126.542 17.8864 126.774 17.8068C127.006 17.724 127.206 17.6013 127.375 17.4389C127.544 17.2765 127.674 17.076 127.763 16.8374L129.17 17.0909C129.057 17.5052 128.855 17.8681 128.563 18.1797C128.275 18.4879 127.912 18.7282 127.475 18.9006C127.04 19.0696 126.545 19.1541 125.988 19.1541ZM131.614 19V11.3636H133.051V12.5767H133.13C133.269 12.1657 133.515 11.8426 133.866 11.6072C134.221 11.3686 134.622 11.2493 135.069 11.2493C135.162 11.2493 135.271 11.2526 135.397 11.2592C135.526 11.2659 135.627 11.2741 135.7 11.2841V12.706C135.641 12.6894 135.535 12.6712 135.382 12.6513C135.23 12.6281 135.077 12.6165 134.925 12.6165C134.573 12.6165 134.26 12.6911 133.985 12.8402C133.713 12.986 133.498 13.1899 133.339 13.4517C133.18 13.7102 133.1 14.0052 133.1 14.3366V19H131.614Z" fill="#718096"/>
</svg>
