<svg width="165" height="103" viewBox="0 0 165 103" fill="none" xmlns="http://www.w3.org/2000/svg">
<circle cx="81.892" cy="9.5" r="9.5" fill="#319795"/>
<path d="M76 25H88V61C88 64.3137 85.3137 67 82 67V67C78.6863 67 76 64.3137 76 61V25Z" fill="#319795"/>
<rect x="55.392" y="21.3923" width="12" height="34.7701" rx="6" transform="rotate(-60 55.392 21.3923)" fill="#319795"/>
<rect x="103.608" y="11" width="12" height="34.8904" rx="6" transform="rotate(60 103.608 11)" fill="#319795"/>
<path d="M6.97301 96V81.4545H15.9929V83.3438H9.16761V87.7756H15.3466V89.6577H9.16761V96H6.97301ZM19.5213 96V85.0909H21.6449V96H19.5213ZM20.5938 83.4077C20.2244 83.4077 19.9072 83.2846 19.642 83.0384C19.3816 82.7874 19.2514 82.4891 19.2514 82.1435C19.2514 81.7931 19.3816 81.4948 19.642 81.2486C19.9072 80.9976 20.2244 80.8722 20.5938 80.8722C20.9631 80.8722 21.2779 80.9976 21.5384 81.2486C21.8035 81.4948 21.9361 81.7931 21.9361 82.1435C21.9361 82.4891 21.8035 82.7874 21.5384 83.0384C21.2779 83.2846 20.9631 83.4077 20.5938 83.4077ZM33.6765 87.7543L31.7518 88.0952C31.6713 87.849 31.5434 87.6146 31.3683 87.392C31.1978 87.1695 30.9658 86.9872 30.6722 86.8452C30.3787 86.7031 30.0117 86.6321 29.5714 86.6321C28.9701 86.6321 28.4682 86.767 28.0657 87.0369C27.6632 87.3021 27.462 87.6454 27.462 88.0668C27.462 88.4313 27.5969 88.7249 27.8668 88.9474C28.1367 89.17 28.5723 89.3523 29.1737 89.4943L30.9066 89.892C31.9104 90.1241 32.6585 90.4815 33.1509 90.9645C33.6433 91.4474 33.8896 92.0748 33.8896 92.8466C33.8896 93.5 33.7002 94.0824 33.3214 94.5938C32.9473 95.1004 32.4241 95.4981 31.7518 95.7869C31.0842 96.0758 30.31 96.2202 29.4293 96.2202C28.2077 96.2202 27.2111 95.9598 26.4393 95.4389C25.6675 94.9134 25.194 94.1676 25.0188 93.2017L27.0714 92.8892C27.1992 93.4242 27.462 93.8291 27.8597 94.1037C28.2575 94.3736 28.7759 94.5085 29.4151 94.5085C30.1112 94.5085 30.6675 94.3641 31.0842 94.0753C31.5008 93.7817 31.7092 93.4242 31.7092 93.0028C31.7092 92.6619 31.5813 92.3755 31.3256 92.1435C31.0747 91.9115 30.6888 91.7363 30.168 91.6179L28.3214 91.2131C27.3034 90.9811 26.5505 90.6117 26.0629 90.1051C25.5799 89.5985 25.3384 88.9569 25.3384 88.1804C25.3384 87.5365 25.5183 86.973 25.8782 86.4901C26.238 86.0071 26.7352 85.6307 27.3697 85.3608C28.0041 85.0862 28.7309 84.9489 29.5501 84.9489C30.729 84.9489 31.6571 85.2045 32.3342 85.7159C33.0112 86.2225 33.4587 86.902 33.6765 87.7543ZM37.2244 96V85.0909H39.348V96H37.2244ZM38.2969 83.4077C37.9276 83.4077 37.6103 83.2846 37.3452 83.0384C37.0848 82.7874 36.9545 82.4891 36.9545 82.1435C36.9545 81.7931 37.0848 81.4948 37.3452 81.2486C37.6103 80.9976 37.9276 80.8722 38.2969 80.8722C38.6662 80.8722 38.9811 80.9976 39.2415 81.2486C39.5066 81.4948 39.6392 81.7931 39.6392 82.1435C39.6392 82.4891 39.5066 82.7874 39.2415 83.0384C38.9811 83.2846 38.6662 83.4077 38.2969 83.4077ZM47.8001 96.2202C46.7773 96.2202 45.8848 95.9858 45.1225 95.517C44.3602 95.0483 43.7683 94.3925 43.3469 93.5497C42.9255 92.7069 42.7148 91.7221 42.7148 90.5952C42.7148 89.4635 42.9255 88.474 43.3469 87.6264C43.7683 86.7789 44.3602 86.1207 45.1225 85.652C45.8848 85.1832 46.7773 84.9489 47.8001 84.9489C48.8228 84.9489 49.7153 85.1832 50.4776 85.652C51.2399 86.1207 51.8318 86.7789 52.2532 87.6264C52.6746 88.474 52.8853 89.4635 52.8853 90.5952C52.8853 91.7221 52.6746 92.7069 52.2532 93.5497C51.8318 94.3925 51.2399 95.0483 50.4776 95.517C49.7153 95.9858 48.8228 96.2202 47.8001 96.2202ZM47.8072 94.4375C48.4701 94.4375 49.0193 94.2623 49.4549 93.9119C49.8905 93.5616 50.2125 93.0952 50.4208 92.5128C50.6339 91.9304 50.7404 91.2888 50.7404 90.5881C50.7404 89.892 50.6339 89.2528 50.4208 88.6705C50.2125 88.0833 49.8905 87.6122 49.4549 87.2571C49.0193 86.902 48.4701 86.7244 47.8072 86.7244C47.1396 86.7244 46.5856 86.902 46.1452 87.2571C45.7096 87.6122 45.3853 88.0833 45.1722 88.6705C44.9639 89.2528 44.8597 89.892 44.8597 90.5881C44.8597 91.2888 44.9639 91.9304 45.1722 92.5128C45.3853 93.0952 45.7096 93.5616 46.1452 93.9119C46.5856 94.2623 47.1396 94.4375 47.8072 94.4375ZM64.3594 85.2756C64.2836 84.6032 63.9711 84.0824 63.4219 83.7131C62.8726 83.339 62.1813 83.152 61.348 83.152C60.7514 83.152 60.2353 83.2467 59.7997 83.4361C59.3641 83.6207 59.0256 83.8764 58.7841 84.2031C58.5473 84.5251 58.429 84.892 58.429 85.304C58.429 85.6496 58.5095 85.9479 58.6705 86.1989C58.8362 86.4498 59.0516 86.6605 59.3168 86.831C59.5866 86.9967 59.8755 87.1364 60.1832 87.25C60.491 87.3589 60.7869 87.4489 61.071 87.5199L62.4915 87.8892C62.9555 88.0028 63.4313 88.1567 63.919 88.3509C64.4067 88.545 64.8589 88.8007 65.2756 89.1179C65.6922 89.4351 66.0284 89.8281 66.2841 90.2969C66.5445 90.7656 66.6747 91.3267 66.6747 91.9801C66.6747 92.804 66.4616 93.5355 66.0355 94.1747C65.6141 94.8139 65.0009 95.3182 64.196 95.6875C63.3958 96.0568 62.4276 96.2415 61.2912 96.2415C60.2022 96.2415 59.2599 96.0687 58.4645 95.723C57.669 95.3774 57.0464 94.8873 56.5966 94.2528C56.1468 93.6136 55.8982 92.8561 55.8509 91.9801H58.0526C58.0952 92.5057 58.2656 92.9437 58.5639 93.294C58.867 93.6397 59.2528 93.8977 59.7216 94.0682C60.1951 94.2339 60.7135 94.3168 61.277 94.3168C61.8973 94.3168 62.4489 94.2197 62.9318 94.0256C63.4195 93.8267 63.803 93.5521 64.0824 93.2017C64.3617 92.8466 64.5014 92.4323 64.5014 91.9588C64.5014 91.5279 64.3783 91.1752 64.1321 90.9006C63.8906 90.6259 63.5616 90.3987 63.1449 90.2188C62.733 90.0388 62.2666 89.8802 61.7457 89.7429L60.027 89.2741C58.8622 88.9569 57.9389 88.4905 57.2571 87.875C56.58 87.2595 56.2415 86.4451 56.2415 85.4318C56.2415 84.5937 56.4688 83.8622 56.9233 83.2372C57.3778 82.6122 57.9934 82.1269 58.7699 81.7812C59.5464 81.4309 60.4223 81.2557 61.3977 81.2557C62.3826 81.2557 63.2514 81.4285 64.0043 81.7741C64.7618 82.1198 65.3584 82.5956 65.794 83.2017C66.2296 83.803 66.4569 84.4943 66.4759 85.2756H64.3594ZM74.7219 96.2202C73.6661 96.2202 72.757 95.9811 71.9947 95.5028C71.2371 95.0199 70.6547 94.3546 70.2475 93.5071C69.8403 92.6596 69.6367 91.6889 69.6367 90.5952C69.6367 89.4872 69.8451 88.5095 70.2617 87.6619C70.6784 86.8097 71.2655 86.1444 72.0231 85.6662C72.7807 85.188 73.6732 84.9489 74.7006 84.9489C75.5292 84.9489 76.2679 85.1027 76.9165 85.4105C77.5652 85.7135 78.0884 86.1397 78.4862 86.6889C78.8886 87.2382 79.1277 87.8797 79.2035 88.6136H77.1367C77.0231 88.1023 76.7627 87.6619 76.3555 87.2926C75.953 86.9233 75.4132 86.7386 74.7362 86.7386C74.1443 86.7386 73.6258 86.8949 73.1808 87.2074C72.7404 87.5152 72.3971 87.9555 72.1509 88.5284C71.9047 89.0966 71.7816 89.7689 71.7816 90.5455C71.7816 91.3409 71.9023 92.0275 72.1438 92.6051C72.3853 93.1828 72.7262 93.6302 73.1665 93.9474C73.6116 94.2647 74.1348 94.4233 74.7362 94.4233C75.1386 94.4233 75.5032 94.3499 75.8299 94.2031C76.1613 94.0516 76.4383 93.8362 76.6609 93.5568C76.8881 93.2775 77.0468 92.9413 77.1367 92.5483H79.2035C79.1277 93.2538 78.8981 93.8835 78.5146 94.4375C78.131 94.9915 77.6173 95.4271 76.9734 95.7443C76.3342 96.0616 75.5837 96.2202 74.7219 96.2202ZM84.598 89.5227V96H82.4744V81.4545H84.5696V86.8665H84.7045C84.9602 86.2794 85.3509 85.813 85.8764 85.4673C86.402 85.1217 87.0885 84.9489 87.9361 84.9489C88.6842 84.9489 89.3376 85.1027 89.8963 85.4105C90.4598 85.7183 90.8954 86.1776 91.2031 86.7884C91.5156 87.3944 91.6719 88.152 91.6719 89.0611V96H89.5483V89.3168C89.5483 88.5166 89.3423 87.8963 88.9304 87.456C88.5185 87.0109 87.9455 86.7884 87.2116 86.7884C86.7098 86.7884 86.2599 86.8949 85.8622 87.108C85.4692 87.321 85.1591 87.6335 84.9318 88.0455C84.7093 88.4527 84.598 88.9451 84.598 89.5227ZM100.207 96.2202C99.1326 96.2202 98.2069 95.9905 97.4304 95.5312C96.6586 95.0672 96.062 94.4162 95.6406 93.5781C95.224 92.7353 95.0156 91.7481 95.0156 90.6165C95.0156 89.4991 95.224 88.5142 95.6406 87.6619C96.062 86.8097 96.6491 86.1444 97.402 85.6662C98.1596 85.188 99.045 84.9489 100.058 84.9489C100.674 84.9489 101.27 85.0507 101.848 85.2543C102.426 85.4579 102.944 85.7775 103.403 86.2131C103.863 86.6487 104.225 87.2145 104.49 87.9105C104.755 88.6018 104.888 89.4422 104.888 90.4318V91.1847H96.2159V89.5938H102.807C102.807 89.035 102.693 88.5402 102.466 88.1094C102.239 87.6738 101.919 87.3305 101.507 87.0795C101.1 86.8286 100.622 86.7031 100.072 86.7031C99.4759 86.7031 98.955 86.8499 98.5099 87.1435C98.0696 87.4323 97.7287 87.8111 97.4872 88.2798C97.2505 88.7438 97.1321 89.2481 97.1321 89.7926V91.0355C97.1321 91.7647 97.2599 92.3849 97.5156 92.8963C97.776 93.4077 98.1383 93.7983 98.6023 94.0682C99.0663 94.3333 99.6084 94.4659 100.229 94.4659C100.631 94.4659 100.998 94.4091 101.33 94.2955C101.661 94.1771 101.947 94.0019 102.189 93.7699C102.43 93.5379 102.615 93.2514 102.743 92.9105L104.753 93.2727C104.592 93.8646 104.303 94.383 103.886 94.8281C103.474 95.2685 102.956 95.6117 102.331 95.858C101.711 96.0994 101.003 96.2202 100.207 96.2202ZM112.328 96.2131C111.447 96.2131 110.661 95.9882 109.97 95.5384C109.283 95.0838 108.743 94.4375 108.35 93.5994C107.962 92.7566 107.768 91.7457 107.768 90.5668C107.768 89.3878 107.965 88.3793 108.358 87.5412C108.755 86.7031 109.3 86.0616 109.991 85.6165C110.682 85.1714 111.466 84.9489 112.342 84.9489C113.019 84.9489 113.564 85.0625 113.975 85.2898C114.392 85.5123 114.714 85.7727 114.941 86.071C115.173 86.3693 115.353 86.6321 115.481 86.8594H115.609V81.4545H117.733V96H115.659V94.3026H115.481C115.353 94.5346 115.169 94.7997 114.927 95.098C114.69 95.3963 114.364 95.6567 113.947 95.8793C113.53 96.1018 112.991 96.2131 112.328 96.2131ZM112.797 94.402C113.407 94.402 113.923 94.241 114.345 93.919C114.771 93.5923 115.093 93.1402 115.311 92.5625C115.533 91.9848 115.645 91.3125 115.645 90.5455C115.645 89.7879 115.536 89.125 115.318 88.5568C115.1 87.9886 114.78 87.5459 114.359 87.2287C113.938 86.9115 113.417 86.7528 112.797 86.7528C112.157 86.7528 111.625 86.9186 111.199 87.25C110.772 87.5814 110.45 88.0336 110.233 88.6065C110.02 89.1795 109.913 89.8258 109.913 90.5455C109.913 91.2746 110.022 91.9304 110.24 92.5128C110.458 93.0952 110.779 93.5568 111.206 93.8977C111.636 94.2339 112.167 94.402 112.797 94.402ZM128.674 91.4759V85.0909H130.805V96H128.717V94.1108H128.603C128.352 94.6932 127.95 95.1785 127.396 95.5668C126.846 95.9503 126.162 96.142 125.343 96.142C124.642 96.142 124.022 95.9882 123.482 95.6804C122.947 95.3679 122.526 94.9062 122.218 94.2955C121.915 93.6847 121.763 92.9295 121.763 92.0298V85.0909H123.887V91.7741C123.887 92.5175 124.093 93.1094 124.505 93.5497C124.917 93.9901 125.452 94.2102 126.11 94.2102C126.508 94.2102 126.903 94.1108 127.296 93.9119C127.694 93.7131 128.023 93.4124 128.283 93.0099C128.549 92.6075 128.679 92.0961 128.674 91.4759ZM136.782 81.4545V96H134.658V81.4545H136.782ZM145.34 96.2202C144.265 96.2202 143.34 95.9905 142.563 95.5312C141.791 95.0672 141.195 94.4162 140.773 93.5781C140.357 92.7353 140.148 91.7481 140.148 90.6165C140.148 89.4991 140.357 88.5142 140.773 87.6619C141.195 86.8097 141.782 86.1444 142.535 85.6662C143.292 85.188 144.178 84.9489 145.191 84.9489C145.807 84.9489 146.403 85.0507 146.981 85.2543C147.558 85.4579 148.077 85.7775 148.536 86.2131C148.996 86.6487 149.358 87.2145 149.623 87.9105C149.888 88.6018 150.021 89.4422 150.021 90.4318V91.1847H141.349V89.5938H147.94C147.94 89.035 147.826 88.5402 147.599 88.1094C147.371 87.6738 147.052 87.3305 146.64 87.0795C146.233 86.8286 145.754 86.7031 145.205 86.7031C144.609 86.7031 144.088 86.8499 143.643 87.1435C143.202 87.4323 142.862 87.8111 142.62 88.2798C142.383 88.7438 142.265 89.2481 142.265 89.7926V91.0355C142.265 91.7647 142.393 92.3849 142.648 92.8963C142.909 93.4077 143.271 93.7983 143.735 94.0682C144.199 94.3333 144.741 94.4659 145.362 94.4659C145.764 94.4659 146.131 94.4091 146.462 94.2955C146.794 94.1771 147.08 94.0019 147.322 93.7699C147.563 93.5379 147.748 93.2514 147.876 92.9105L149.886 93.2727C149.725 93.8646 149.436 94.383 149.019 94.8281C148.607 95.2685 148.089 95.6117 147.464 95.858C146.844 96.0994 146.136 96.2202 145.34 96.2202ZM153.377 96V85.0909H155.429V86.8239H155.543C155.742 86.2367 156.092 85.7751 156.594 85.4389C157.101 85.098 157.674 84.9276 158.313 84.9276C158.445 84.9276 158.602 84.9323 158.782 84.9418C158.966 84.9512 159.111 84.9631 159.215 84.9773V87.0085C159.13 86.9848 158.978 86.9588 158.76 86.9304C158.542 86.8973 158.325 86.8807 158.107 86.8807C157.605 86.8807 157.158 86.9872 156.765 87.2003C156.376 87.4086 156.069 87.6998 155.841 88.0739C155.614 88.4432 155.5 88.8646 155.5 89.3381V96H153.377Z" fill="#718096"/>
</svg>
